<?xml version="1.0" encoding="utf-8"?>
<svg viewBox="0 0 48 48" xmlns="http://www.w3.org/2000/svg">
  <linearGradient id="a" gradientUnits="userSpaceOnUse" x1="399.57144" x2="399.57144" y1="545.79797" y2="517.79797">
    <stop offset="0" stop-color="#3889e9"/>
    <stop offset="1" stop-color="#5ea5fb"/>
  </linearGradient>
  <g stroke-width="1.3" transform="matrix(1.6428585052490234, 0, 0, 1.6428585052490237, -634.0821667582642, -849.6687802138584)">
    <circle cx="400.57138" cy="531.79791" r="13.999958" style="fill: rgb(154, 205, 50);"/>
    <circle cx="400.57144" cy="531.79797" fill="none" r="13.999958"/>
    <circle cx="400.57138" cy="531.79791" fill="url(#a)" r="0"/>
  </g>
  <path d="m121.35661 2.1136578-11.08-11.08c-1.52-1.5209998-3.368-2.2809998-5.54-2.2809998-2.173 0-4.021.76-5.540997 2.2809998l-53.446 53.5280002-23.953-24.035c-1.521-1.521-3.368-2.281-5.54-2.281-2.173 0-4.02.76-5.541 2.281l-11.07999967 11.08c-1.52100003 1.521-2.28100003 3.368-2.28100003 5.541 0 2.172.76 4.02 2.28100003 5.54l29.49299967 29.493 11.081 11.08c1.52 1.521 3.367 2.281 5.54 2.281 2.172 0 4.019-.761 5.54-2.281l11.081-11.08 58.985997-58.986c1.52-1.521 2.281-3.3680002 2.281-5.5410002.001-2.172-.761-4.019-2.281-5.54z" fill="#fff" fill-opacity=".850806" transform="matrix(0.2217242121696472, 0, 0, 0.22172421216964724, 10.386547308742662, 17.296465286603798)"/>
</svg>